<?xml version="1.0" encoding="utf-8"?>
<!-- Generator: Adobe Illustrator 27.5.0, SVG Export Plug-In . SVG Version: 6.00 Build 0)  -->
<svg version="1.1" id="Layer_1" xmlns="http://www.w3.org/2000/svg" xmlns:xlink="http://www.w3.org/1999/xlink" x="0px" y="0px"
	 viewBox="0 0 4000 4000" style="enable-background:new 0 0 4000 4000;" xml:space="preserve">
<g>
	<g>
		<g>
			<rect style="fill:#FFF2CF;" width="4000" height="4000"/>
		</g>
	</g>
	<g>
		<g>
			<g>
				<g>
					<path style="fill:#FCBD3F;" d="M965.102,2212.409c0,0-190.613,5.229-229.691,56.845
						c-30.625,40.449-3.695,301.273,18.094,355.625c14.083,35.131,167.061,34.648,162.54,185.202
						c-3.662,121.953-129.06,146.904-144.665,165.817c-15.605,18.913,0.55,144.542,7.018,184.11
						c21.371,130.742,51.521,148.433,79.208,151.069c264.482,25.182,883.298,54.163,1209.516,41.098
						c360.368-14.433,919.615-26.351,997.416-121.924c66.786-82.042,104.555-307.189,112.282-385.013
						c5.882-59.239,11.975-175.659-9.889-195.838c-32.877-30.345-91.93-96.567-73.419-192.933
						c15.83-82.408,88.434-96.065,96.361-123.453c7.927-27.388,14.03-187.412-20.341-243.453L965.102,2212.409z"/>
				</g>
			</g>
			<g>
				<g>
					<path style="fill:#FFA41F;" d="M1070.602,2206.529c-24.608,89.041,25.962,205.81,284.836,231.046
						c331.122,32.279,559.826-61.745,559.826-61.745s-33.033,470.021,223.205,499.461
						c255.439,29.348,109.462-337.045,130.781-527.317c0,0,75.51-3.654,132.808-6.678c2.114,69.743,74.675,192.323,222.556,161.319
						c0,0,5.061,165.884,178.235,154.758c111.627-7.172,167.544-142.049,106.199-346.604
						c-33.638-112.167,2.756-183.545,18.764-207.739L1070.602,2206.529z"/>
				</g>
			</g>
			<g>
				<g>
					<path style="fill:#FFA41F;" d="M3114.843,2168.916c0,0-1.125-0.5-3.303-1.3l-234.302,13.057
						c-55.997,17.849-121.336,47.103-195.433,93.701c-45.261,28.464,91.859,157.276,20.364,407.253
						c-86.989,304.152-500.113,7.256-743.445,292.894c-175.322,205.804-406.592,204.749-598.019,146.295
						c-168.113-51.335-372.346-42.422-514.642-16.073c1.768,14.691,3.816,29.446,6.067,43.214
						c8.512,52.063,17.392,77.071,22.551,88.195c271.359,25.182,873.689,52.535,1189.396,39.887
						c32.28-1.293,66.153-2.563,101.133-3.878c173.587-6.52,370.33-13.914,536.036-29.691
						c246.173-23.434,296.507-54.271,305.035-61.358c44.654-56.494,84.288-238.363,94.717-343.413
						c6.362-64.049,6.336-120.124,2.762-143.362c-72.337-72.493-102.502-161.507-85.074-252.239
						c15.872-82.639,69.828-121.886,98.815-142.968c0.242-0.18,0.49-0.359,0.743-0.542
						C3121.166,2266.668,3120.428,2209.209,3114.843,2168.916z"/>
				</g>
			</g>
			<g style="opacity:0.3;">
				<g>
					
						<ellipse transform="matrix(0.1017 -0.9948 0.9948 0.1017 -927.1264 4939.3081)" style="fill:#FFFFFF;" cx="2271.408" cy="2983.018" rx="244.943" ry="212.988"/>
				</g>
			</g>
			<g>
				<g>
					
						<ellipse transform="matrix(0.1017 -0.9948 0.9948 0.1017 -921.9056 4916.2285)" style="fill:#FF9545;" cx="2261.239" cy="2968.588" rx="231.621" ry="201.404"/>
				</g>
			</g>
			<g>
				<g>
					<path style="fill:#F47F31;" d="M2431.716,2839.373c-25.948-19.401-56.474-31.967-89.775-35.371
						c-110.668-11.313-210.907,82.657-223.919,209.95c-5.625,55.031,5.991,107.228,29.886,149.703
						c-60.196-45.011-96.12-126.654-87.034-215.542c13.007-127.242,113.251-221.262,223.919-209.95
						C2347.606,2744.584,2400.299,2783.568,2431.716,2839.373z"/>
				</g>
			</g>
			<g>
				<g>
					<path style="fill:#323A49;" d="M2255.911,3211.915c-6.462,0-12.942-0.33-19.443-0.994
						c-117.048-11.965-201.162-130.407-187.502-264.033c6.584-64.421,34.663-122.824,79.063-164.451
						c44.858-42.058,100.959-62.017,157.983-56.184c117.048,11.965,201.162,130.408,187.502,264.033
						c-6.584,64.421-34.663,122.825-79.06,164.451C2354.707,3192,2306.125,3211.915,2255.911,3211.915z M2266.655,2749.217
						c-44.143,0-87.009,17.656-122.246,50.693c-40.186,37.676-65.618,90.74-71.616,149.414
						c-12.314,120.483,62.202,227.148,166.111,237.769c50.002,5.134,99.438-12.583,139.165-49.829
						c40.186-37.676,65.618-90.74,71.616-149.414c12.314-120.483-62.202-227.148-166.111-237.769
						C2277.925,2749.503,2272.278,2749.217,2266.655,2749.217z"/>
				</g>
			</g>
			<g style="opacity:0.3;">
				<g>
					
						<ellipse transform="matrix(0.1017 -0.9948 0.9948 0.1017 -41.6504 5099.5044)" style="fill:#FFFFFF;" cx="2802.85" cy="2572.815" rx="218.3" ry="189.82"/>
				</g>
			</g>
			<g>
				<g>
					
						<ellipse transform="matrix(0.1017 -0.9948 0.9948 0.1017 -36.9986 5078.9341)" style="fill:#FF9545;" cx="2793.787" cy="2559.954" rx="206.427" ry="179.496"/>
				</g>
			</g>
			<g>
				<g>
					<path style="fill:#F47F31;" d="M2945.72,2444.794c-23.125-17.29-50.331-28.49-80.01-31.524
						c-98.63-10.082-187.966,73.666-199.563,187.113c-5.013,49.045,5.34,95.565,26.635,133.419
						c-53.648-40.115-85.665-112.877-77.567-192.096c11.592-113.402,100.933-197.195,199.563-187.113
						C2870.759,2360.315,2917.72,2395.059,2945.72,2444.794z"/>
				</g>
			</g>
			<g>
				<g>
					<path style="fill:#323A49;" d="M2788.811,2778.106c-5.713,0-11.45-0.291-17.234-0.881
						c-105.029-10.735-180.515-116.938-168.271-236.743c12.249-119.805,107.649-208.523,212.69-197.8
						c105.029,10.735,180.515,116.938,168.271,236.743l0,0C2972.695,2692.633,2886.846,2778.106,2788.811,2778.106z
						 M2798.74,2365.753c-85.906,0-161.292,76.262-171.606,177.166c-10.901,106.665,54.988,201.086,146.88,210.479
						c91.873,9.377,175.52-69.746,186.426-176.409c10.901-106.665-54.988-201.086-146.88-210.479
						C2808.596,2366.002,2803.645,2365.753,2798.74,2365.753z"/>
				</g>
			</g>
			<g style="opacity:0.3;">
				<g>
					
						<ellipse transform="matrix(0.1017 -0.9948 0.9948 0.1017 -1717.5511 4381.8442)" style="fill:#FFFFFF;" cx="1567.519" cy="3141.957" rx="111.811" ry="97.224"/>
				</g>
			</g>
			<g>
				<g>
					
						<ellipse transform="matrix(0.1017 -0.9948 0.9948 0.1017 -1715.1698 4371.3042)" style="fill:#FF9545;" cx="1562.877" cy="3135.369" rx="105.73" ry="91.936"/>
				</g>
			</g>
			<g>
				<g>
					<path style="fill:#F47F31;" d="M1640.696,3076.386c-11.844-8.856-25.779-14.592-40.98-16.146
						c-50.517-5.164-96.274,37.731-102.214,95.837c-2.568,25.12,2.735,48.947,13.642,68.336
						c-27.478-20.547-43.877-57.814-39.729-98.39c5.937-58.083,51.696-101.001,102.214-95.837
						C1602.302,3033.117,1626.355,3050.913,1640.696,3076.386z"/>
				</g>
			</g>
			<g>
				<g>
					<path style="fill:#323A49;" d="M1560.471,3252.953c-3.179,0-6.365-0.161-9.563-0.488c-57-5.828-98.003-63.096-91.404-127.661
						c3.164-30.967,16.702-59.08,38.113-79.155c21.873-20.51,49.304-30.244,77.229-27.373c27.93,2.854,52.825,17.922,70.095,42.432
						c16.907,23.992,24.473,54.263,21.309,85.229l0,0c-3.167,30.967-16.702,59.08-38.113,79.155
						C1608.77,3243.25,1585.042,3252.953,1560.471,3252.953z M1565.374,3041.744c-18.501,0-36.514,7.446-51.375,21.377
						c-17.197,16.125-28.088,38.896-30.667,64.119c-5.256,51.426,26.15,96.912,70.012,101.396
						c20.906,2.126,41.67-5.322,58.411-21.018c17.197-16.125,28.088-38.896,30.667-64.119l0,0
						c2.578-25.222-3.479-49.724-17.061-68.994c-13.215-18.758-32.021-30.264-52.952-32.403
						C1570.061,3041.864,1567.712,3041.744,1565.374,3041.744z"/>
				</g>
			</g>
			<g style="opacity:0.3;">
				<g>
					
						<ellipse transform="matrix(0.1017 -0.9948 0.9948 0.1017 -1102.9508 4098.147)" style="fill:#FFFFFF;" cx="1717.733" cy="2659.795" rx="188.873" ry="164.233"/>
				</g>
			</g>
			<g>
				<g>
					
						<ellipse transform="matrix(0.1017 -0.9948 0.9948 0.1017 -1098.9247 4080.3516)" style="fill:#FF9545;" cx="1709.891" cy="2648.667" rx="178.601" ry="155.3"/>
				</g>
			</g>
			<g>
				<g>
					<path style="fill:#F47F31;" d="M1841.344,2549.031c-20.008-14.96-43.547-24.65-69.225-27.274
						c-85.335-8.723-162.628,63.736-172.662,161.89c-4.338,42.434,4.62,82.683,23.045,115.434
						c-46.416-34.708-74.117-97.661-67.111-166.202c10.029-98.115,87.327-170.613,172.662-161.89
						C1776.488,2475.94,1817.119,2506.001,1841.344,2549.031z"/>
				</g>
			</g>
			<g>
				<g>
					<path style="fill:#323A49;" d="M1705.793,2839.037c-5.078,0-10.173-0.259-15.283-0.781
						c-44.766-4.575-84.719-28.804-112.495-68.22c-27.415-38.904-39.678-88.047-34.534-138.379
						c10.686-104.538,94.021-181.97,185.791-172.578c91.755,9.38,157.712,102.061,147.029,206.599l0,0
						c-5.146,50.332-27.1,95.977-61.816,128.528C1783.323,2823.424,1745.21,2839.037,1705.793,2839.037z M1714.177,2482.26
						c-73.503,0-138.027,65.366-146.868,151.833c-4.558,44.585,6.199,87.964,30.283,122.143
						c23.723,33.665,57.588,54.331,95.354,58.191c37.764,3.86,75.112-9.524,105.156-37.695c30.5-28.599,49.81-68.909,54.37-113.491
						l0,0c9.341-91.399-47.019-172.297-125.637-180.334C1722.595,2482.472,1718.372,2482.26,1714.177,2482.26z"/>
				</g>
			</g>
			<g style="opacity:0.3;">
				<g>
					
						<ellipse transform="matrix(0.1017 -0.9948 0.9948 0.1017 -2131.3562 3766.6892)" style="fill:#FFFFFF;" cx="1020.001" cy="3063.512" rx="155.834" ry="147.256"/>
				</g>
			</g>
			<g>
				<g>
					
						<ellipse transform="matrix(0.1017 -0.9948 0.9948 0.1017 -2128.5378 3751.3296)" style="fill:#FF9545;" cx="1012.896" cy="3054.266" rx="147.359" ry="139.247"/>
				</g>
			</g>
			<g>
				<g>
					<path style="fill:#F47F31;" d="M1129.942,2972.937c-18.033-12.499-39.191-20.671-62.215-23.025
						c-76.514-7.821-145.236,51.457-153.514,132.441c-3.579,35.011,4.737,68.314,21.481,95.494
						c-41.835-28.998-67.108-81.187-61.327-137.738c8.275-80.952,77-140.263,153.514-132.441
						C1071.308,2912.108,1107.927,2937.226,1129.942,2972.937z"/>
				</g>
			</g>
			<g>
				<g>
					<path style="fill:#323A49;" d="M1011.584,3213.536c-4.944,0-9.91-0.251-14.893-0.762
						c-40.31-4.121-76.479-24.563-101.841-57.566c-25.205-32.798-36.711-74.109-32.395-116.321
						c4.316-42.212,23.94-80.342,55.261-107.361c31.509-27.188,71.05-39.902,111.382-35.769
						c40.31,4.121,76.479,24.563,101.841,57.566c25.205,32.798,36.711,74.109,32.395,116.321s-23.94,80.342-55.261,107.361
						C1080.457,3200.833,1046.653,3213.536,1011.584,3213.536z M1014.27,2918.951c-29.348,0-57.688,10.678-80.908,30.71
						c-26.667,23.008-43.386,55.562-47.078,91.663s6.096,71.362,27.559,99.29c21.306,27.724,51.594,44.887,85.286,48.332
						c33.677,3.44,66.826-7.236,93.301-30.076c26.667-23.008,43.386-55.562,47.078-91.663s-6.096-71.362-27.559-99.29
						c-21.306-27.725-51.594-44.888-85.286-48.333C1022.522,2919.164,1018.384,2918.951,1014.27,2918.951z"/>
				</g>
			</g>
			<g>
				<g>
					<path style="fill:#323A49;" d="M1875.522,3371.415c-339.434,0.005-800.796-23.625-1019.431-44.441
						c-40.598-3.865-72.026-33.301-93.455-164.39c-4.582-28.04-26.294-169.314-3.574-196.851
						c5.84-7.078,15.977-12.063,31.321-19.612c40.088-19.722,107.185-52.732,109.7-136.519
						c2.822-93.975-59.69-120.977-109.922-142.673c-25.002-10.798-44.751-19.328-51.477-36.108
						c-21.394-53.367-53.181-322.1-16.006-371.206c42.332-55.911,220.425-62.566,241.765-63.164l2204.199-122.835
						c5.876-0.356,11.431,2.59,14.502,7.595c37.559,61.243,31.118,224.958,22.068,256.238
						c-4.343,15.002-17.854,24.829-33.499,36.208c-23.843,17.341-53.513,38.923-62.522,85.82
						c-12.439,64.761,10.63,124.712,68.569,178.186c28.469,26.279,21.584,142.319,14.949,209.15
						c-7.373,74.246-44.468,305.903-115.791,393.516c-69.731,85.664-452.59,106.807-908.259,123.928
						c-34.897,1.311-68.694,2.581-100.898,3.87C2011.118,3370.399,1945.911,3371.415,1875.522,3371.415z M783.857,2985.951
						c-7.5,15.344-0.701,104.189,10.298,171.482c21.846,133.643,50.969,136.416,64.963,137.749
						c263.118,25.051,878.87,54.189,1207.363,41.038c32.231-1.292,66.052-2.563,100.977-3.875
						c325.903-12.246,818.411-30.752,884.695-112.175c61.436-75.466,99.814-286.252,108.774-376.509
						c9.915-99.812,5.205-172.468-4.846-182.546c-65.645-60.583-92.71-132.397-78.252-207.661
						c11.387-59.282,49.727-87.168,75.098-105.62c9.519-6.924,20.308-14.773,21.606-19.26
						c7.114-24.585,12.117-165.022-14.299-222.502l-2194.243,122.28c-0.149,0.01-0.3,0.015-0.449,0.02
						c-70.747,1.958-192.329,17.407-217.4,50.522c-6.514,8.604-15.405,52.363-7.412,161.797
						c5.479,75.017,17.6,153.313,27.598,178.247c2.283,4.761,21.667,13.135,34.497,18.677
						c49.614,21.428,132.654,57.297,129.182,172.947c-3.093,103-84.04,142.822-127.527,164.219
						C796.528,2978.69,786.714,2983.519,783.857,2985.951z M965.102,2212.408h0.049H965.102z"/>
				</g>
			</g>
			<g>
				<g>
					
						<ellipse transform="matrix(0.1018 -0.9948 0.9948 0.1018 -536.6318 4386.103)" style="fill:#FFA41F;" cx="2160.586" cy="2490.223" rx="103.222" ry="103.604"/>
				</g>
			</g>
			<g>
				<g>
					
						<ellipse transform="matrix(0.1017 -0.9948 0.9948 0.1017 -598.9191 5565.8901)" style="fill:#F47F31;" cx="2782.454" cy="3114.575" rx="92.228" ry="78.192"/>
				</g>
			</g>
			<g>
				<g>
					<path style="fill:#323A49;" d="M2780.01,3218.656c-2.708,0-5.427-0.139-8.152-0.417c-24.336-2.488-45.969-15.852-60.913-37.632
						c-14.524-21.167-20.984-47.874-18.191-75.2s14.521-52.173,33.027-69.963c19.038-18.308,42.9-27.034,67.271-24.531
						c24.336,2.488,45.969,15.854,60.913,37.634c14.521,21.167,20.981,47.871,18.188,75.198s-14.521,52.173-33.027,69.963
						C2822.217,3209.964,2801.482,3218.656,2780.01,3218.656z M2784.993,3034.452c-15.291,0-30.239,6.362-42.61,18.257
						c-14.421,13.865-23.584,33.445-25.801,55.135c-2.217,21.689,2.795,42.717,14.111,59.211
						c10.898,15.881,26.382,25.596,43.601,27.356c17.207,1.768,34.346-4.619,48.23-17.969
						c14.421-13.865,23.584-33.445,25.801-55.134l0,0c2.217-21.687-2.795-42.717-14.111-59.211
						c-10.896-15.881-26.379-25.596-43.599-27.356C2788.74,3034.547,2786.863,3034.452,2784.993,3034.452z"/>
				</g>
			</g>
			<g>
				<g>
					
						<ellipse transform="matrix(0.1017 -0.9948 0.9948 0.1017 -1667.9861 3375.9636)" style="fill:#FFA41F;" cx="1035.34" cy="2611.576" rx="81.496" ry="78.192"/>
				</g>
				<g>
					<path style="fill:#323A49;" d="M1034.858,2705.025c-2.996,0-6.006-0.154-9.023-0.461
						c-24.053-2.458-45.647-14.504-60.798-33.914c-15.039-19.263-21.926-43.499-19.397-68.245
						c5.242-51.277,49.729-88.877,99.207-83.816c49.458,5.054,85.435,50.881,80.195,102.156l0,0
						c-2.529,24.744-14.18,47.085-32.805,62.908C1075.825,2697.596,1055.73,2705.025,1034.858,2705.025z M1035.942,2542.088
						c-33.662,0-62.81,26.899-66.475,62.754c-1.897,18.564,3.232,36.702,14.448,51.069c11.101,14.219,26.853,23.035,44.355,24.824
						c17.493,1.785,34.707-3.657,48.457-15.337c13.892-11.799,22.585-28.525,24.485-47.09l0,0
						c3.896-38.135-22.483-72.18-58.804-75.891C1040.239,2542.196,1038.083,2542.088,1035.942,2542.088z"/>
				</g>
			</g>
			<g>
				<g>
					
						<ellipse transform="matrix(0.1017 -0.9948 0.9948 0.1017 -1228.5978 3622.9863)" style="fill:#FFA41F;" cx="1391.792" cy="2491.783" rx="55.607" ry="53.353"/>
				</g>
				<g>
					<path style="fill:#323A49;" d="M1391.475,2559.349c-2.175,0-4.363-0.11-6.555-0.334c-17.454-1.785-33.113-10.515-44.097-24.583
						c-10.867-13.921-15.847-31.428-14.021-49.294c3.789-37.07,35.974-64.275,71.863-60.588
						c17.454,1.785,33.113,10.515,44.097,24.583c10.867,13.921,15.847,31.428,14.021,49.295
						c-1.826,17.866-10.244,34.001-23.704,45.437C1421.187,2553.966,1406.614,2559.349,1391.475,2559.349z M1392.207,2448.172
						c-21.045,0-39.277,16.892-41.577,39.402c-1.194,11.687,2.029,23.093,9.072,32.119c6.931,8.877,16.753,14.38,27.654,15.493
						c10.894,1.125,21.633-2.283,30.215-9.578c8.726-7.415,14.189-17.932,15.383-29.619s-2.029-23.093-9.072-32.119
						c-6.931-8.877-16.753-14.38-27.654-15.493C1394.88,2448.241,1393.535,2448.172,1392.207,2448.172z"/>
				</g>
			</g>
			<g>
				<g>
					
						<ellipse transform="matrix(0.1016 -0.9948 0.9948 0.1016 -434.0891 4706.7388)" style="fill:#FFA41F;" cx="2388.971" cy="2593.715" rx="70.591" ry="70.852"/>
				</g>
			</g>
			<g>
				<g>
					<path style="fill:#323A49;" d="M2389.087,2676.288c-2.815,0-5.654-0.142-8.513-0.435
						c-22.002-2.249-41.814-12.903-55.791-29.997c-13.987-17.107-20.454-38.616-18.21-60.564
						c4.629-45.293,45.369-78.381,90.796-73.716c45.435,4.646,78.63,45.271,74.001,90.562
						C2467.031,2644.579,2430.991,2676.288,2389.087,2676.288z M2388.875,2535.094c-29.785,0-55.393,22.508-58.474,52.634
						c-1.592,15.566,2.998,30.825,12.925,42.969c9.939,12.153,24.031,19.729,39.685,21.328
						c32.297,3.303,61.243-20.171,64.531-52.324c3.286-32.151-20.315-60.996-52.61-64.297
						C2392.898,2535.196,2390.876,2535.094,2388.875,2535.094z"/>
				</g>
			</g>
			<g>
				<g>
					
						<ellipse transform="matrix(0.1015 -0.9948 0.9948 0.1015 -1655.298 3886.6433)" style="fill:#FFA41F;" cx="1323.989" cy="2859.691" rx="49.688" ry="49.871"/>
				</g>
				<g>
					<path style="fill:#323A49;" d="M1324.07,2921.361c-2.1,0-4.216-0.107-6.353-0.325c-33.926-3.469-58.713-33.811-55.256-67.634
						s33.821-58.523,67.798-55.056c33.926,3.469,58.713,33.811,55.256,67.634C1382.275,2897.677,1355.361,2921.361,1324.07,2921.361
						z M1323.923,2821.974c-19.17,0-35.652,14.48-37.634,33.865c-2.114,20.684,13.079,39.243,33.865,41.37
						c20.806,2.139,39.419-12.979,41.533-33.665s-13.079-39.243-33.865-41.37C1326.514,2822.04,1325.21,2821.974,1323.923,2821.974z
						"/>
				</g>
			</g>
			<g style="opacity:0.3;">
				<g>
					<path style="fill:#FFFFFF;" d="M1048.664,2433.925c82.565-87.018,289.535-57.45,337.304-31.328
						c60.966,33.34-92.88,256.773-294.639,194.443C1038.591,2580.748,966.099,2520.942,1048.664,2433.925z"/>
				</g>
			</g>
			<g>
				<g>
					<path style="fill:#FCBD3F;" d="M1179.209,2319.176c-300.438,29.699-479.711,13.431-443.798-49.922
						c67.104-118.376,1262.579-422.732,1542.026-415.061c340.464,9.346,826.797,150.971,892.107,235.361
						c47.023,60.76-49.621,119.771-263.235,141.84c-174.269,18.004-571.919,24.865-962.23,41.751"/>
				</g>
			</g>
			<g style="opacity:0.6;">
				<g>
					<path style="fill:#FFFFFF;" d="M743.345,2305.263c123.243-124.61,1262.207-412.508,1534.093-405.045
						c340.463,9.346,826.797,150.971,892.107,235.361c1.718,2.22,3.186,4.437,4.522,6.651c10.634-16.796,9.426-34.655-4.522-52.677
						c-65.31-84.391-551.644-226.016-892.107-235.361c-279.447-7.671-1474.923,296.685-1542.026,415.061
						C727.219,2283.705,730.258,2295.698,743.345,2305.263z"/>
				</g>
			</g>
			<g>
				<g>
					<path style="fill:#323A49;" d="M1179.209,2319.176c-89.233,17.149-179.503,27.354-270.544,28.399
						c-52.877,0.201-230.154,0.187-186.964-87.095c29.646-44.269,127.777-79.495,176.817-100.314
						c126.86-49.326,257.1-88.997,387.665-126.585c261.466-73.585,525.621-137.917,794.048-181.186
						c67.616-9.792,136.856-20.299,205.745-18.033c204.986,8.879,407.037,49.79,603.474,107.33
						c65.485,19.81,130.626,41.888,193.137,70.407c32.011,15.233,64.67,30.819,91.77,55.587
						c22.299,20.185,34.583,55.177,15.687,83.376c-21.917,33.195-59.932,47.993-94.016,60.659
						c-65.752,22.165-134.96,31.922-203.345,38.17c-135.489,11.264-271.115,14.807-406.741,19.181
						c-179.946,4.948-361.832,7.233-541.86,4.074c179.079-18.672,360.945-27.693,540.752-35.378
						c90.156-3.904,180.342-7.164,270.254-12.344c89.138-5.335,179.068-10.362,266.057-29.648
						c21.506-4.815,42.725-10.539,63.11-17.714c28.056-10.547,58.169-22.303,74.828-45.979
						c29.839-44.669-122.659-98.33-153.56-111.117c-125.775-46.755-256.605-80.089-388.297-105.988
						c-115.316-21.968-231.743-38.344-348.923-40.784c-150.713,4.581-299.436,37.332-447.251,66.626
						c-263.917,56.644-526.585,122.71-783.364,206.064c-83.924,28.479-170.481,57.306-247.969,99.384
						c-14.773,8.82-30.097,17.3-39.956,30.748c-0.856,1.462-1.701,3.152-2.06,4.397c-0.908,2.781-0.623,3.676-0.2,5.022
						c6.528,9.853,18.881,12.984,31.459,17.193c19.984,5.666,41.839,8.768,63.697,11.004
						C954.364,2324.988,1066.161,2319.212,1179.209,2319.176L1179.209,2319.176z"/>
				</g>
			</g>
		</g>
		<g>
			<g>
				<g>
					<path style="fill:#FFBDBD;" d="M2671.019,1875.906c92.194,92.71,340.68,165.437,511.294,33.912
						c132.352-102.029,146.027-263.097,86.337-398.402c-29.105-65.975-95.331-148.515-136.641-197.504
						c-178.296-211.436-140.196-404.476-15.736-417.397c64.672-6.714,117.664,44.011,99.037,84.227
						c-12.652,27.317-74.507,40.64-107.104,26.67c50.377,74.93,169.828,40.659,175.706-37.224
						c11.007-145.842-200.788-208.562-303.553-76.229c-69.427,89.403-49.107,220.133-9.714,296.147
						c44.786,86.422,117.24,161.899,176.106,241.3c139.474,188.127,80.01,397.51-85.09,445.77
						c-240.713,70.362-356.87-109.934-356.87-109.934"/>
				</g>
			</g>
			<g>
				<g>
					<path style="fill:#FFBDBD;" d="M2671.019,1875.903c92.196,92.699,340.668,165.424,511.287,33.916
						c111.903-86.265,138.982-214.757,108.552-334.2c-5.53-21.818-13.003-43.333-22.22-64.213
						c-29.09-65.955-95.313-148.5-136.636-197.497c-178.294-211.439-140.188-404.479-15.718-417.382
						c64.648-6.736,117.667,44.004,99.034,84.22c-12.668,27.314-74.501,40.619-107.111,26.677
						c50.372,74.904,169.815,40.652,175.714-37.234c10.992-145.852-200.782-208.557-303.569-76.244
						c-69.407,89.415-49.097,220.153-9.719,296.162c44.808,86.432,117.265,161.906,176.115,241.3
						c139.485,188.114,80.031,397.508-85.092,445.768c-110.998,32.441-195.486,11.596-254.336-20.309
						c-68.771-37.267-102.519-89.616-102.519-89.616L2671.019,1875.903z"/>
				</g>
			</g>
			<g>
				<g>
					<path style="fill:#FFBDBD;" d="M2671.019,1875.903c92.196,92.699,340.668,165.424,511.287,33.916
						c111.903-86.265,138.982-214.757,108.552-334.2c-5.53-21.818-13.003-43.333-22.22-64.213
						c-29.09-65.955-95.313-148.5-136.636-197.497c-5.496-6.502-10.758-12.97-15.819-19.438l-0.033-0.034
						c-160.029-203.697-120.516-385.41,0.134-397.91c64.648-6.736,117.667,44.004,99.034,84.22
						c-10.088,21.784-51.478,34.653-84.354,31.905c-0.101-0.034-0.167-0.034-0.167-0.034c-8.278-0.704-16.02-2.38-22.589-5.195
						c50.372,74.904,169.815,40.652,175.714-37.234c10.992-145.852-200.782-208.557-303.569-76.244
						c-69.407,89.415-49.097,220.153-9.719,296.162c44.808,86.432,117.265,161.906,176.115,241.3
						c139.485,188.114,80.031,397.508-85.092,445.768c-110.998,32.441-195.486,11.596-254.336-20.309
						c-68.771-37.267-102.519-89.616-102.519-89.616L2671.019,1875.903z"/>
				</g>
			</g>
			<g style="opacity:0.5;">
				<g>
					<path style="fill:#FFFFFF;" d="M3283.92,970.19c10.992-145.852-200.782-208.557-303.569-76.244
						c-69.407,89.415-49.097,220.153-9.719,296.162c44.808,86.432,117.265,161.906,176.115,241.3
						c28.185,38.038,48.26,76.914,60.962,115.187c-10.39-44.406-31.403-90.353-64.514-134.994
						c-54.628-73.697-121.857-143.741-163.447-223.973c-36.564-70.547-55.432-191.901,9.015-274.881
						c95.414-122.828,291.973-64.615,281.751,70.748c-1.408,18.6-9.786,34.519-22.253,46.685
						C3268.001,1016.339,3281.976,995.56,3283.92,970.19z"/>
				</g>
			</g>
			<g>
				<g>
					<path style="fill:#F79292;" d="M3116.15,1294.437c-160.029-203.697-120.516-385.41,0.134-397.91
						c64.648-6.736,117.667,44.004,99.034,84.22c-10.088,21.784-51.478,34.653-84.354,31.905
						c4.726,1.173,102.754,24.633,106.473-59.052c3.821-85.728-143.707-109.926-201.619-62.168
						C2969.996,945.692,2929.545,1115.741,3116.15,1294.437z"/>
				</g>
			</g>
			<g>
				<g>
					<path style="fill:#F79292;" d="M2671.019,1875.903c92.196,92.699,340.668,165.424,511.287,33.916
						c111.903-86.265,138.982-214.757,108.552-334.2c0.234,6.099,9.384,259.9-175.881,331.385
						c-207.786,80.165-312.417-7.373-312.417-7.373s5.664-16.723,4.759-42.764c-68.771-37.267-102.519-89.616-102.519-89.616
						L2671.019,1875.903z"/>
				</g>
			</g>
			<g>
				<g>
					<path style="fill:#323A49;" d="M2960.022,1997.372c-21.306,0-43.01-1.526-64.983-4.609
						c-93.433-13.113-183.611-53.577-235.344-105.598c-6.218-6.252-6.189-16.365,0.063-22.583
						c6.252-6.221,16.365-6.191,22.583,0.064c80.63,81.079,320.056,163.713,490.222,32.527
						c136.892-105.527,131.846-265.134,81.477-379.312c-21.157-47.959-66.321-113.113-134.238-193.655
						c-128.303-152.149-141.831-286.157-111.709-360.835c19.177-47.544,58.005-77.7,106.531-82.739
						c42.102-4.363,85.115,13.269,106.992,43.896c14.392,20.149,17.373,43.083,8.184,62.925
						c-10.393,22.441-40.84,36.548-71.895,40.454c17.869,6.79,37.048,6.411,52.939,2.21c32.561-8.601,54.993-32.595,57.146-61.128
						c4.824-63.938-38.923-104.241-81.475-120.635c-57.673-22.222-139.878-13.708-193.542,55.4
						c-67.214,86.548-41.699,214.273-8.149,279.004c29.956,57.805,73.723,111.99,116.05,164.387
						c19.661,24.341,39.993,49.509,58.706,74.751c75.63,102.009,99.978,217.129,66.802,315.845
						c-25.562,76.057-83.967,132.468-160.239,154.763c-129.963,37.988-224.829,4.492-281.533-30.298
						c-61.523-37.749-91.975-84.35-93.24-86.316c-4.778-7.412-2.639-17.295,4.775-22.07c7.41-4.776,17.297-2.639,22.07,4.775
						c4.497,6.917,113.11,169.275,338.967,103.254c67.075-19.607,116.414-67.297,138.926-134.282
						c29.8-88.672,7.136-193.152-62.183-286.653c-18.32-24.709-38.438-49.614-57.896-73.701
						c-43.323-53.633-88.12-109.092-119.561-169.761c-44.727-86.299-60.273-221.15,11.279-313.288
						c63.726-82.058,161.563-92.075,230.249-65.613c67.954,26.187,106.978,84.751,101.838,152.839
						c-3.193,42.302-34.922,77.476-80.835,89.602c-48.501,12.805-97.19-4.724-124.045-44.673c-3.948-5.874-3.56-13.647,0.957-19.097
						c4.514-5.457,12.08-7.28,18.586-4.49c27.334,11.719,78.528-1.87,86.321-18.704c5.786-12.493-0.769-24.746-5.193-30.94
						c-12.825-17.959-41.824-34.443-77.708-30.691c-36.902,3.831-65.388,26.174-80.208,62.917
						c-25.425,63.032-12.788,186.836,106.504,328.303c69.878,82.866,116.66,150.61,139.043,201.35
						c32.334,73.296,42.693,149.692,29.956,220.938c-13.992,78.276-55.886,146.245-121.155,196.557
						C3128.32,1971.603,3047.598,1997.372,2960.022,1997.372z"/>
				</g>
			</g>
		</g>
		<g>
			<g>
				<g>
					<path style="fill:#C2C6D2;" d="M1934.575,1648.102c228.062,100.397,454.611-168.172,724.16-59.495
						c116.82,47.1,203.583,201.724,216.597,321.963c11.471,105.981-16.846,219.545-177.244,285.377
						c-339.619,139.389-1280.46-1.656-1280.46-1.656l100.746-199.138L1934.575,1648.102z"/>
				</g>
			</g>
			<g>
				<g>
					<path style="fill:#A1ACC6;" d="M2530.758,2238.199c-25.152-88.711-53.002-182.251-53.002-182.251
						s-155.839,73.688-235.785,11.714l-88.805,189.193C2287.344,2259.267,2419.784,2254.846,2530.758,2238.199z"/>
				</g>
			</g>
			<g>
				<g>
					<path style="fill:#A1ACC6;" d="M2154.814,1655.487c-74.233,19.047-147.159,24.785-220.239-7.385l-416.2,347.052
						l-100.747,199.138c0,0,425.234,63.747,807.137,63.175C2281.885,2078.248,2223.719,1772.308,2154.814,1655.487z"/>
				</g>
			</g>
			<g style="opacity:0.6;">
				<g>
					<path style="fill:#FFFFFF;" d="M2875.333,1910.57c-13.014-120.239-99.777-274.863-216.597-321.963
						c-269.549-108.677-496.098,159.892-724.16,59.495l-416.2,347.052l-100.747,199.138c0,0,4.133,0.619,11.88,1.726l84.219-166.469
						l416.2-347.052c158.207,69.646,315.691-38.237,487.301-74.596c-11.875,9.85-18.774,21.511-18.774,34.024
						c0,35.243,54.522,63.813,121.778,63.813c67.256,0,121.778-28.57,121.778-63.813c0-9.912-4.313-19.297-12.01-27.667
						c7.992,2.597,16.019,5.492,24.087,8.745c116.821,47.1,203.583,201.724,216.597,321.963c2.255,20.836,2.937,41.962,1.415,62.964
						C2878.592,1975.813,2878.826,1942.842,2875.333,1910.57z"/>
				</g>
			</g>
			<g>
				<g>
					<path style="fill:#E2EEF2;" d="M2536.841,2237.274c-28.784-76.508-59.327-136.858-82.082-129.007
						c-142.764,49.257-272.909,12.073-272.909,12.073l-61.546,135.793C2268.05,2259.971,2415.653,2256.079,2536.841,2237.274z"/>
				</g>
			</g>
			<g>
				<g>
					<path style="fill:#323A49;" d="M2217.561,2273.839c-370.679,0.007-776.797-59.932-802.3-63.755
						c-5.068-0.759-9.465-3.909-11.819-8.462c-2.354-4.556-2.375-9.964-0.061-14.539l100.745-199.138l28.496,14.417l-90.688,179.263
						c143.242,19.905,946.975,123.962,1250.093-0.449c126.624-51.97,181.389-139.924,167.429-268.887
						c-12.273-113.416-94.788-263.755-206.692-308.872c-133.232-53.716-257.17-10.862-377.024,30.579
						c-118.911,41.116-231.228,79.958-347.598,28.721l12.866-29.229c104.91,46.179,211.472,9.338,324.294-29.675
						c125.408-43.362,255.088-88.201,399.404-30.015c124.514,50.2,212.942,209.78,226.501,335.054
						c15.479,143.008-47.456,244.573-187.058,301.87C2588.884,2258.031,2407.866,2273.834,2217.561,2273.839z"/>
				</g>
			</g>
		</g>
		<g>
			<g>
				<g>
					<g>
						<path style="fill:#FFBDBD;" d="M2747.785,2234.814c120.988-6.572,131.385,124.843,126.213,170.387
							c-4.864,42.832-9.22,86.238-9.22,86.238s37.628,24.875,22.78,70.621c-4.84,14.913-16.635,30.774-48.486,30.993
							c-18.801,20.269-48.76,18.905-65.445,9.421c-22.99,8.884-43.028-3.948-53.304-15.309
							c-16.143-17.848-22.325-39.246-22.325-39.246s-15.217,4.571-27.97-9.938c-13.382-15.224-26.11-84.317,15.77-137.775
							L2747.785,2234.814z"/>
					</g>
				</g>
				<g>
					<g>
						<path style="fill:#F79292;" d="M2873.992,2405.195c-4.867,42.829-9.226,86.257-9.226,86.257s37.638,24.869,22.803,70.619
							c-4.862,14.916-16.663,30.764-48.498,30.994c-18.802,20.258-48.76,18.884-65.421,9.41
							c-23.005,8.884-43.054-3.942-53.34-15.316c-4.863-5.414-8.861-11.129-11.986-16.513c11.293,5.804,25.156,8.705,34.685-3.796
							c0,0,33.038,27.51,49.403-5.937c0,0,54.569,18.697,65.124-16.042c8.838-29.082-32.546-54.428-32.546-54.428
							s28.432-51.167,1.213-68.588c-26.422-16.904-86.929,80.685-160.724,15.339c4.471-12.593,11.049-25.161,20.322-36.973
							l61.994-165.391C2868.765,2228.224,2879.166,2359.649,2873.992,2405.195z"/>
					</g>
				</g>
				<g>
					<g>
						<path style="fill:#323A49;" d="M2800.598,2625.169c-10.022,0-19.761-2.004-28.218-5.554
							c-26.333,6.729-49.939-6.301-63.899-21.741c-10.525-11.633-17.358-24.512-21.338-33.599
							c-9.165-1.099-19.924-5.303-29.106-15.752c-20.266-23.057-29.893-100.62,15.19-158.167c5.439-6.941,15.479-8.159,22.419-2.722
							c6.941,5.439,8.159,15.476,2.722,22.419c-37.554,47.935-23.979,108.699-16.345,117.385c4.946,5.63,9.841,5.408,11.599,5.105
							c4.092-1.484,8.13-1.047,12.048,0.913c3.987,1.995,6.431,5.745,7.668,10.029c0.037,0.127,5.518,18.252,18.826,32.964
							c3.921,4.338,18.081,17.939,35.706,11.128c4.475-1.726,9.482-1.357,13.647,1.013c10.537,5.986,32.395,8.101,45.847-6.399
							c2.996-3.23,7.192-5.078,11.597-5.107c23.923-0.164,30.42-10.752,33.408-19.956c10.972-33.803-15.276-51.628-16.399-52.37
							c-4.946-3.272-7.673-9.014-7.083-14.915c0.044-0.435,4.421-44.001,9.241-86.445c3.672-32.324-2.317-92.556-33.862-126.016
							c-18.291-19.399-43.75-28.367-75.615-26.626c-8.806,0.423-16.335-6.272-16.812-15.078
							c-0.479-8.806,6.272-16.333,15.078-16.812c41.75-2.253,75.552,10.051,100.586,36.609
							c41.968,44.512,46.372,116.189,42.358,151.526c-3.523,31.023-6.809,62.659-8.323,77.437
							c15.798,14.636,33.716,44.001,21.206,82.549c-5.835,17.976-20.483,39.265-56.98,41.787
							C2832.568,2620.287,2816.24,2625.169,2800.598,2625.169z"/>
					</g>
				</g>
				<g>
					<g>
						<path style="fill:#323A49;" d="M2836.182,2608.757c-50.436-14.153-75.127-76.28-58.269-122.338
							c-2.405,22.787,4.169,45.172,16.398,62.167c11.137,15.7,28.874,28.263,47.651,28.762
							C2841.963,2577.349,2836.182,2608.757,2836.182,2608.757L2836.182,2608.757z"/>
					</g>
				</g>
				<g>
					<g>
						<path style="fill:#323A49;" d="M2764.434,2615.53c-31.6-27.351-42.646-74.124-31.867-112.914
							c0.571,35.61,18.345,71.986,50.256,86.802C2782.822,2589.418,2764.434,2615.53,2764.434,2615.53L2764.434,2615.53z"/>
					</g>
				</g>
				<g>
					<g>
						<path style="fill:#323A49;" d="M2682.102,2549.431c-0.047-46.159,8.87-93.592,27.865-135.473
							c-8.455,44.692-6.498,88.579,3.928,132.451C2713.894,2546.409,2682.102,2549.431,2682.102,2549.431L2682.102,2549.431z"/>
					</g>
				</g>
			</g>
			<g>
				<g>
					<g>
						<path style="fill:#C2C6D2;" d="M2875.333,1910.57c22.915,197.838-87.175,334.294-87.175,334.294
							c32.93,46.5,40.498,197.405-105.73,218.228c0,0-161.154,26.484-230.349-70.376c-96.794-135.494,29.655-343.689,29.655-343.689
							"/>
					</g>
				</g>
				<g>
					<g>
						<path style="fill:#A1ACC6;" d="M2875.333,1910.57l-15.038,5.29c-6.855,136.49-38.17,263.368-203.12,382.698
							c0,0,103.464,0,60,77.448c-47.496,84.633-211.382,62.931-211.401,62.929c76.323,40.629,176.654,24.156,176.654,24.156
							c146.228-20.823,138.66-171.729,105.731-218.228C2788.159,2244.864,2898.248,2108.408,2875.333,1910.57z"/>
					</g>
				</g>
				<g style="opacity:0.6;">
					<g>
						<path style="fill:#FFFFFF;" d="M2452.079,2392.716c50.853,71.185,151.373,75.749,201.091,73.168
							c-110.014-10.21-198.477-69.041-204.885-229.331c-4.162-104.125,33.448-187.526,33.448-187.526l0,0h0
							C2481.734,2049.027,2355.286,2257.222,2452.079,2392.716z"/>
					</g>
				</g>
				<g>
					<g>
						<path style="fill:#323A49;" d="M2481.733,2049.027c-37.175,96-76.488,218.569-26.681,315.007
							c42.027,81.647,148.049,94.234,230.824,82.344c33.429-5.544,65.126-21.235,84.199-49.415
							c26.957-39.796,29.953-101.472,5.053-142.871c-0.001,0-6.808-9.74-6.808-9.74l7.41-9.517
							c66.62-91.794,96.636-209.844,83.741-322.429c-1.045-8.788,5.271-16.764,14.069-17.75c8.762-0.988,16.667,5.313,17.656,14.076
							c6.908,60.48,2.509,122.28-13.045,181.123c-15.844,59.091-40.844,115.781-77.565,165.034c0,0,0.603-19.254,0.603-19.254
							c32.933,51.967,29.553,128.928-4.808,179.441c-35.768,53.817-103.884,68.173-164.125,67.545
							C2361.928,2484.705,2349.018,2225.444,2481.733,2049.027L2481.733,2049.027z"/>
					</g>
				</g>
				<g>
					<g>
						<path style="fill:#323A49;" d="M2717.175,2284.988l63.125-54.025c6.829-5.844,17.1-5.045,22.942,1.782
							c7.558,8.453,3.525,22.669-7.227,26.019C2796.016,2258.765,2717.175,2284.988,2717.175,2284.988L2717.175,2284.988z"/>
					</g>
				</g>
			</g>
		</g>
		<g>
			<g>
				<g>
					<g>
						<g>
							<path style="fill:#C2C6D2;" d="M2238.672,2057.439c0.187,266.15,30.579,462.606-18.427,537.586
								c-42.871,65.592-167.014,100.633-203.387,47.816c-75.357-109.425-39.856-408.865-17.977-492.077L2238.672,2057.439z"/>
						</g>
					</g>
					<g>
						<g>
							<path style="fill:#A1ACC6;" d="M2207.253,2069.667c-15.363,168.116,10.572,307.936-27.897,436.478
								c0,0-141.654-18.13-185.086,89.636c6.074,17.958,13.521,33.896,22.587,47.06c36.373,52.817,160.516,17.776,203.387-47.816
								c49.007-74.979,18.615-271.435,18.428-537.586L2207.253,2069.667z"/>
						</g>
					</g>
					<g>
						<g>
							<path style="fill:#A1ACC6;" d="M1998.88,2150.764c-9.891,37.619-22.564,119.43-26.522,207.898
								c88.294-21.377,250.062-121.487,266.436-274.269c0.001-0.015,0.002-0.029,0.004-0.044c-0.072-8.894-0.12-17.853-0.126-26.91
								L1998.88,2150.764z"/>
						</g>
					</g>
				</g>
				<g>
					<g>
						<g>
							<path style="fill:#323A49;" d="M2238.672,2057.439c18.451,106.104,21.406,212.012,25.86,319.054
								c0.732,72.317,10.611,188.064-40.539,244.797c-40.375,44.218-99.372,69.962-159.078,66.503
								c-22.636-1.413-50.254-12.393-64.043-33.449c-67.667-103.313-49.98-308.236-33.481-427.437
								c4.221-26.748,8.82-53.179,16.047-80.203l30.886,8.12c-5.891,24.623-9.812,50.874-13.164,76.831
								c-13.307,110.968-24.886,281.579,22.137,383.292c3.235,6.433,6.666,12.439,10.803,18.08
								c8.365,10.008,19.88,13.646,34.375,15.232c44.539,3.023,96.522-19.286,127.022-52.105
								c31.308-34.742,31.774-94.253,34.515-139.795C2234.562,2323.374,2215.444,2189.756,2238.672,2057.439L2238.672,2057.439z"/>
						</g>
					</g>
				</g>
			</g>
			<g>
				<g>
					<g>
						<path style="fill:#FFBDBD;" d="M2088.107,2745.444c-1.6,16.288-34.233,58.479-66.809,26.884
							c-35.486-34.418-3.218-160.802-3.218-160.802l77.028,30.103L2088.107,2745.444z"/>
					</g>
				</g>
				<g>
					<g>
						<path style="fill:#323A49;" d="M2046.123,2799.747c-12.703,0-25.076-5.418-35.942-15.957
							c-40.098-38.894-13.342-153.611-7.571-176.213c1.13-4.434,4.111-8.167,8.181-10.256c4.067-2.092,8.843-2.334,13.103-0.667
							l77.026,30.103c8.213,3.21,12.271,12.471,9.06,20.686c-3.208,8.213-12.473,12.278-20.686,9.06l-59.802-23.372
							c-9.946,47.993-14.668,110.671,2.925,127.734c8.428,8.176,14.446,7.517,18.748,6.025
							c11.326-3.921,20.415-18.279,21.055-23.042c0.864-8.777,8.657-15.186,17.454-14.314c8.777,0.864,15.19,8.694,14.326,17.471
							c-1.665,16.946-19.126,41.548-41.516,49.756C2057.031,2798.758,2051.548,2799.747,2046.123,2799.747z"/>
					</g>
				</g>
				<g>
					<g>
						<path style="fill:#FFBDBD;" d="M2015.099,2626.996c0,24.843,27.309,136.562,88.906,173.696
							c25.388,15.305,57.43,9.639,64.75-9.834c37.458,13.688,54-19.568,51.49-43.243c15.28,4.599,31.325-0.527,40.617-10.13
							c25.402-26.255-14.069-71.715-23.817-89.499c-13.158-24.005-13.173-43.472-20.315-65.708
							C2189.881,2498.681,2015.099,2545.693,2015.099,2626.996z"/>
					</g>
				</g>
				<g>
					<g>
						<path style="fill:#F79292;" d="M2168.754,2790.858c37.458,13.688,54.001-19.569,51.49-43.243
							c15.28,4.599,31.325-0.527,40.617-10.13c22.86-23.627-6.808-62.796-20.082-83.363c16.712,77.631-55.945,63.078-55.945,63.078
							c2.566,51.356-59.905,37.735-59.905,37.735c-3.832,43.451-48.382,21.253-49.934,20.467
							c8.667,10.106,18.309,18.841,29.009,25.291C2129.393,2815.997,2161.434,2810.331,2168.754,2790.858z"/>
					</g>
				</g>
				<g>
					<g>
						<path style="fill:#323A49;" d="M2135.09,2825.396c-13.376,0-27.305-3.779-39.331-11.03
							c-66.509-40.095-96.631-157.3-96.631-187.371c0-54.712,60.696-93.74,117.805-102.686
							c57.52-9.019,101.589,11.331,114.998,53.083c2.729,8.494,4.463,16.414,6.138,24.072c2.839,12.981,5.522,25.242,12.979,38.843
							c1.423,2.6,4.065,6.587,6.865,10.808c15.447,23.308,44.199,66.694,14.426,97.471c-9.58,9.9-23.203,15.728-37.188,16.55
							c-2.542,12.876-8.958,26.04-20.291,34.89c-10.82,8.447-24.351,11.57-38.958,9.182c-5.088,5.613-11.863,10-19.939,12.805
							C2149.431,2824.286,2142.341,2825.396,2135.09,2825.396z M2142.222,2554.237c-6.829,0-13.708,0.583-20.347,1.624
							c-43.672,6.841-90.808,35.984-90.808,71.135c0,21.982,26.108,126.821,81.182,160.022c10.471,6.304,23.516,8.206,33.237,4.832
							c2.507-0.872,6.924-2.891,8.323-6.609c3.081-8.201,12.183-12.402,20.427-9.38c13.408,4.905,19.099,0.457,20.967-1.003
							c7.122-5.562,10.037-17.319,9.163-25.562c-0.564-5.317,1.572-10.564,5.691-13.977c4.116-3.416,9.675-4.533,14.79-2.996
							c10,3.013,19.731-0.971,24.539-5.942c11.003-11.372-3.569-35.706-18.093-57.62c-3.318-5.005-6.182-9.326-8.252-13.101
							c-9.666-17.634-12.971-32.751-16.169-47.368c-1.584-7.246-3.083-14.089-5.344-21.13
							C2193.701,2562.799,2168.352,2554.237,2142.222,2554.237z"/>
					</g>
				</g>
				<g>
					<g>
						<path style="fill:#323A49;" d="M2138.469,2642.842c15.527,29.192,38.671,54.736,63.859,75.645
							c8.248,6.498,17.22,12.284,25.072,14.853l-14.314,28.549c-22.106-15.055-34.525-34.564-47.493-55.95
							C2154.307,2685.961,2143.773,2665.153,2138.469,2642.842L2138.469,2642.842z"/>
					</g>
				</g>
				<g>
					<g>
						<path style="fill:#323A49;" d="M2078.784,2677.538c9.741,22.472,25.144,41.919,41.765,59.484
							c15.696,16.102,34.683,32.163,55.318,39.539c0,0-14.224,28.595-14.224,28.595
							C2121.056,2778.579,2089.094,2723.92,2078.784,2677.538L2078.784,2677.538z"/>
					</g>
				</g>
			</g>
		</g>
		<g>
			<g>
				<g>
					<g>
						<path style="fill:#C2C6D2;" d="M1218.61,1517.268c0,0-78.723-369.444-315.864-433.943
							c-192.426-52.337-346.69,67.995-384.679,264.753c-30.755,159.291,13.844,426.582,148.105,526.681
							c172.566,128.659,422.516,4.125,422.516,4.125"/>
					</g>
				</g>
				<g>
					<g>
						<path style="fill:#323A49;" d="M856.943,1949.403c-66.677,0.005-137.883-15.295-200.315-61.841
							c-145.774-108.684-183.73-389.768-154.241-542.512c21.047-109.004,76.553-196.399,156.294-246.086
							c72.041-44.888,157.883-55.627,248.257-31.045c243.735,66.289,323.992,430.547,327.29,446.021
							c1.838,8.623-3.662,17.102-12.285,18.943c-8.628,1.833-17.104-3.66-18.95-12.283c-0.769-3.601-79.531-360.696-304.438-421.865
							c-81.57-22.185-158.679-12.737-222.983,27.334c-72.114,44.937-122.483,124.856-141.826,225.037
							c-28.542,147.834,11.66,413.699,141.97,510.852c162.537,121.184,403.445,3.828,405.859,2.632
							c7.886-3.918,17.478-0.708,21.404,7.185c3.928,7.893,0.72,17.473-7.17,21.404
							C1088.94,1896.6,980.784,1949.396,856.943,1949.403z"/>
					</g>
				</g>
				<g>
					<g>
						<path style="fill:#FFBDBD;" d="M1149.005,1564.036c0,0-85.057-330.833-250.829-379.528
							c-146.964-43.17-266.296,52.228-295.476,203.359c0,0-44.171,413.126,243.513,451.839
							c171.411,23.066,260.421-104.904,275.475-137.033C1149.775,1642.728,1149.005,1564.036,1149.005,1564.036z"/>
					</g>
				</g>
				<g>
					<g>
						<path style="fill:#FFBDBD;" d="M1148.992,1564.034c0,0,0.672,68.853-22.228,126.816c-1.577,3.977-3.265,7.938-5.078,11.812
							c-15.057,32.141-104.062,160.094-275.458,137.052c-224.057-30.176-246.814-287.378-245.932-399.709
							c0.233-31.936,2.405-52.147,2.405-52.147c29.179-151.138,148.506-246.531,295.464-203.345
							C1063.932,1233.201,1148.992,1564.034,1148.992,1564.034z"/>
					</g>
				</g>
				<g>
					<g>
						<path style="fill:#F79292;" d="M1148.992,1564.034c0,0,0.672,68.853-22.228,126.816c-5.1-0.145-9.962-1.601-12.517-5.786
							c-6.731-11.163-51.723-182.177-125.917-179.541c-55.532,2.002-89.124,33.45-91.145,35.331
							c2.177-3.25,44.709-64.955,123.872-57.166c0,0-92.924-65.654-198.92-9.055c-6.683-10.483,94.384-60.553,183.66-44.194
							c0,0-103.19-206.339-261.75-147.95c-143.611,52.884-143.749,157.514-143.749,157.514c0.233-31.936,2.405-52.147,2.405-52.147
							c29.179-151.138,148.506-246.531,295.464-203.345C1063.932,1233.201,1148.992,1564.034,1148.992,1564.034z"/>
					</g>
				</g>
				<g>
					<g>
						<path style="fill:#323A49;" d="M1141.272,1566.024c-42.144-120.115-130.045-348.239-269.477-372.101
							c-135.552-29.663-236.082,69.23-269.094,193.947c14.243-141.054,128.314-252.791,275.083-224.143
							c132.219,21.558,207.516,177.967,248.56,291.342c12.196,35.086,22.78,70.441,30.395,106.979
							C1158.572,1571.725,1144.442,1575.736,1141.272,1566.024L1141.272,1566.024z"/>
					</g>
				</g>
			</g>
			<g>
				<g>
					<path style="fill:#C2C6D2;" d="M2185.485,1804.862c-44.277-194.421-126.582-334.773-229.58-419.062l-390.022-113.941
						c-140.235,0.797-280.528,53.38-362.53,105.819c-184.195,111.763-294.732,414.979-180.602,736.801
						c-50.063,240.29,200.612,245.452,597.987,226.893C2087.284,2319.583,2269.136,2181.374,2185.485,1804.862z"/>
				</g>
			</g>
			<g>
				<g>
					<path style="fill:#A1ACC6;" d="M2185.486,1804.862c-31.594-138.73-82.561-249.907-146.582-332.853
						c45.383,74.475,81.947,166.116,106.656,274.616c83.651,376.513-98.201,514.721-564.747,536.511
						c-267.834,12.509-469.002,14.227-556.384-59.547c44.447,132.242,271.283,132.965,596.309,117.784
						C2087.284,2319.583,2269.136,2181.374,2185.486,1804.862z"/>
				</g>
			</g>
			<g>
				<g>
					<path style="fill:#FFFFFF;" d="M1437.719,2037.44c78.402-13.186,286.851,3.71,286.934,136.221
						c0.097,154.917-389.474,181.109-431.75,14.224C1267.595,2087.984,1392.721,2045.007,1437.719,2037.44z"/>
				</g>
			</g>
			<g>
				<g>
					<path style="fill:#E2EEF2;" d="M1630.239,2280.292c-16.119,1.097-32.564,2.056-49.425,2.844
						c-60.54,2.828-117.632,5.09-170.816,6.068C1479.562,2309.19,1565.676,2305.105,1630.239,2280.292z"/>
				</g>
			</g>
			<g>
				<g>
					<path style="fill:#323A49;" d="M1393.772,2364.12c-173.164,0-298.616-18.599-357.688-87.881
						c-33.542-39.339-43.325-91.909-29.856-160.611c-67.441-193.203-48.42-352.624-20.425-452.627
						c36.86-131.672,113.135-240.644,209.265-298.975c76.992-49.241,220.557-107.28,370.725-108.135
						c1.45-0.166,3.083,0.205,4.568,0.64l390.022,113.94c2.058,0.6,3.975,1.611,5.635,2.969
						c110.635,90.54,191.909,238.496,235.037,427.876c0.007,0.027,0.012,0.054,0.02,0.08
						c36.963,166.37,22.605,289.519-43.889,376.492c-84.673,110.747-249.888,166.086-535.701,179.434
						C1538.853,2361.183,1462.537,2364.12,1393.772,2364.12z M1563.66,1287.845c-142.507,1.392-278.381,56.394-351.704,103.286
						c-89.597,54.37-160.701,156.528-195.398,280.481c-26.951,96.274-45.144,250.334,21.243,437.529
						c0.979,2.756,1.179,5.73,0.583,8.594c-12.615,60.554-5.42,105.623,22.002,137.783c72.957,85.562,287.161,82.625,559.609,69.905
						c271.819-12.695,434.453-65.74,511.819-166.931c60.413-79.016,72.871-193.55,38.093-350.122
						c-41.208-180.928-117.817-321.975-221.628-408.164L1563.66,1287.845z"/>
				</g>
			</g>
			<g>
				<g>
					
						<path style="fill:none;stroke:#6B184E;stroke-width:31.9364;stroke-linecap:round;stroke-linejoin:round;stroke-miterlimit:10;" d="
						M1079.96,1665.947"/>
				</g>
			</g>
			<g>
				<g>
					<path style="fill:#323A49;" d="M2165.51,1960.933c-58.188,8.111-122.541,18.388-180.703,28.643
						c-20.071,3.349-40.093,6.927-60.344,9.885c-4.675,0.72-6.446-6.259-1.863-7.758c38.901-13.317,79.21-21.905,119.809-27.98
						c40.616-6.18,81.438-10.315,122.585-10.758C2169.863,1952.917,2170.468,1960.348,2165.51,1960.933L2165.51,1960.933z"/>
				</g>
			</g>
			<g>
				<g>
					<path style="fill:#323A49;" d="M2155.425,2067.025c-75.139-9.976-156.803-18.289-232.334-24.341
						c-4.71-0.371-4.839-7.568-0.039-7.98c39.303-3.905,78.935-1.83,118.042,2.855c39.116,4.651,77.864,11.408,115.952,21.649
						C2161.744,2060.468,2160.337,2067.762,2155.425,2067.025L2155.425,2067.025z"/>
				</g>
			</g>
			<g>
				<g>
					<path style="fill:#323A49;" d="M909.524,2167.201c53.763-16.375,112.666-26.694,168.42-15.352
						c4.496,1.018,3.825,7.875-0.808,7.945c-41.658,1.677-82.886,4.656-124.243,9.932c0,0-41.492,5.235-41.492,5.235
						C906.699,2175.688,904.965,2168.702,909.524,2167.201L909.524,2167.201z"/>
				</g>
			</g>
			<g>
				<g>
					<path style="fill:#323A49;" d="M931.846,2241.686c23.15-10.738,47.147-19.04,71.677-25.932c24.68-6.78,50-12.544,75.908-11.121
						c4.533,0.278,5.061,7.02,0.608,7.96c-24.2,6.127-85.517,21.673-108.855,27.778c-12.191,3.073-24.435,6.165-36.76,8.865
						C929.869,2250.277,927.58,2243.644,931.846,2241.686L931.846,2241.686z"/>
				</g>
			</g>
			<g>
				<g>
					<g>
						<path style="fill:#C2C6D2;" d="M1955.884,1387.096c-133.966-120.847-336.407-110.248-411.946-140.165
							c-40.171-15.91-208.574-121.661-297.392-51.919c-14.472,39.654,43.566,59.673,67.696,92.731
							c-119.792-37.774-211.502,39.033-203.703,92.586c2.456,16.869,79.995-3.913,107.198,20.325L1955.884,1387.096z"/>
					</g>
				</g>
				<g>
					<g>
						<path style="fill:#323A49;" d="M1945.188,1398.953c-68.011-61.703-160.527-90.267-250.288-106.236
							c-52.781-10.793-108.589-13.007-160.051-32.274c-73.755-34.685-202.827-108.919-278.44-52.872
							c0,0.001,5.137-7.083,5.137-7.083c-5.034,14.747,7.084,23.931,18.188,34.234c16.007,13.76,33.82,25.366,47.406,43.608
							c5.227,7.086,3.718,17.065-3.367,22.291c-4.172,3.077-9.351,3.82-13.967,2.462c-53.624-13.561-114.82-8.118-157.363,27.958
							c-13.807,12.227-25.781,27.293-26.143,45.105c0,0,0.081,1.835,0.081,1.835c-0.169-2.337-2.875-6.58-4.903-7.125
							c-0.359-0.143-0.354-0.054-0.156,0.063c16.058,4.288,34.886,3.28,53.33,7.388c15.383,3.275,33.911,8.443,43.086,22.348
							c-20.908-8.392-45.048-1.905-66.604-0.123c-16.271,1.059-38.193,6.578-51.685-7.551c-3.412-3.855-4.971-9.362-5.302-14.337
							c-2.981-29.108,14.076-56.488,33.623-74.824c50.867-47.501,128.815-55.818,191.274-31.305c0,0-17.698,24.643-17.698,24.643
							c-21.749-29.264-67.599-44.039-72.843-85.816c-0.42-10.403,0.46-21.994,8.181-28.889
							c14.395-11.298,31.49-19.029,48.829-22.954c82.261-16.455,164.759,24.471,236.101,59.107
							c8.77,4.348,17.186,8.667,25.857,12.498c18.942,7.678,38.751,11.003,59.487,14.768
							c110.051,17.251,226.468,33.888,320.661,98.825c13.645,9.257,26.541,19.629,38.96,30.541L1945.188,1398.953L1945.188,1398.953
							z"/>
					</g>
				</g>
				<g>
					<g>
						<path style="fill:#323A49;" d="M1366.24,1327.571c-18.53-11.302-39.016-20.634-59.648-25.812
							c-8.848-2.197-14.236-11.149-12.039-19.994c2.612-11.812,18.066-16.547,26.892-8.437
							C1339.427,1289.237,1353.996,1307.517,1366.24,1327.571L1366.24,1327.571z"/>
					</g>
				</g>
			</g>
			<g>
				<g>
					<g>
						<path style="fill:#C2C6D2;" d="M1810.012,1412.188c0,0-53.363-373.95,147.044-516.192
							c162.618-115.421,348.893-55.596,452.337,116.032c83.746,138.946,133.954,405.241,42.394,545.464
							c-117.683,180.23-395.233,149.423-395.233,149.423"/>
					</g>
				</g>
				<g>
					<g>
						<path style="fill:#323A49;" d="M1810.012,1412.188c-41.568-149.727-18.096-360.672,83.709-482.483
							c104.59-119.72,278.014-150.404,411.154-58.642c148.749,99.021,211.127,308.994,214.099,479.958
							c0.889,121.166-32.272,230.047-137.864,300.088c-94.849,61.594-215.31,75.5-324.554,55.808
							c86.267-2.804,173.525-16.292,251.858-51.576c131.51-59.53,177.03-164.31,173.766-303.877
							c-5.704-160.075-61.292-353.138-199.417-447.521c-67.762-47.136-155.542-61.517-233.796-34.17
							c-68.756,22.741-128.758,70.542-164.008,134.1C1816.548,1126.657,1816.995,1274.792,1810.012,1412.188L1810.012,1412.188z"/>
					</g>
				</g>
				<g>
					<g>
						<path style="fill:#FFBDBD;" d="M1891.469,1432.115c0,0-34.116-339.885,104.735-442.704
							c123.098-91.154,267.988-42.704,347.445,89.125c0,0,183.783,372.624-72.957,508.069
							c-152.973,80.702-280.619-8.772-305.819-33.748C1917.853,1506.256,1891.469,1432.115,1891.469,1432.115z"/>
					</g>
				</g>
				<g>
					<g>
						<path style="fill:#FFBDBD;" d="M1891.48,1432.109c0,0,23.088,64.87,64.554,111.397c2.851,3.19,5.8,6.327,8.836,9.339
							c25.207,24.987,152.843,114.448,305.81,33.772c199.947-105.513,132.709-354.812,93.186-459.964
							c-11.22-29.901-20.222-48.127-20.222-48.127c-79.458-131.836-224.342-180.284-347.428-89.116
							C1857.366,1092.223,1891.48,1432.109,1891.48,1432.109z"/>
					</g>
				</g>
				<g>
					<g>
						<path style="fill:#F79292;" d="M1891.48,1432.109c0,0,23.088,64.87,64.554,111.397c4.738-1.893,8.8-4.934,9.758-9.744
							c2.474-12.798-14.2-188.844,56.361-211.928c52.823-17.25,95.192,0.701,97.737,1.771
							c-3.163-2.301-64.349-45.578-135.983-10.995c0,0,64.62-93.646,183.625-77.025c2.663-12.144-109.467-24.333-187.642,21.779
							c0,0,25.794-229.256,194.763-229.063c153.039,0.175,189.212,98.354,189.212,98.354c-11.22-29.901-20.222-48.127-20.222-48.127
							c-79.458-131.836-224.342-180.284-347.428-89.116C1857.366,1092.223,1891.48,1432.109,1891.48,1432.109z"/>
					</g>
				</g>
				<g>
					<g>
						<path style="fill:#323A49;" d="M1891.467,1432.115c-22.708-132.881-23.006-361.939,92.372-453.083
							c129.613-100.063,292.49-41.615,359.808,99.505c-74.639-104.537-202.54-162.935-319.239-89.051
							C1901.311,1058.681,1893.981,1304.144,1891.467,1432.115L1891.467,1432.115z"/>
					</g>
				</g>
			</g>
			<g>
				<g>
					<g>
						<g>
							<path style="fill:#323A49;" d="M1381.761,2079.91c3.675,20.912,30.234,35.29,50.107,43.253
								c13.759,5.513,29.488,2.749,40.543-7.125c15.967-14.261,36.032-36.833,32.357-57.745
								C1498.799,2024.326,1375.792,2045.943,1381.761,2079.91z"/>
						</g>
					</g>
					<g style="opacity:0.35;">
						<g>
							<path style="fill:#FFFFFF;" d="M1409.642,2067.428c0.68,3.868,9.905,5.77,16.896,6.661c4.841,0.617,10.66-0.406,15-2.636
								c6.269-3.221,14.293-8.154,13.613-12.022C1454.047,2053.146,1408.538,2061.144,1409.642,2067.428z"/>
						</g>
					</g>
				</g>
				<g>
					<g>
						<path style="fill:#323A49;" d="M1444.843,2125.218c5.593,14.517,20.185,26.355,21.591,25.94
							c0.939-0.277-4.325-18.557-1.722-30.996"/>
					</g>
				</g>
			</g>
			<g>
				<g>
					<g>
						<path style="fill:#323A49;" d="M1588.738,2018.572c-0.04-81.135,38.112-171.85,118.808-202.845
							c43.314-15.461,96.694-9.116,131.112,22.439c32.682,29.106,47.997,71.317,45.833,113.334
							c-22.65-28.348-44.699-57.356-74.783-74.171C1703.436,1822.625,1633.93,1936.732,1588.738,2018.572L1588.738,2018.572z"/>
					</g>
				</g>
				<g>
					<g>
						<path style="fill:#323A49;" d="M1327.788,2060.381c-36.599-49.88-104.273-124.877-168.489-94.587
							c-36.373,22.771-47.456,70.495-58.279,111.168c-27.949-58.002-7.095-147.807,62.826-163.482
							C1250.028,1896.258,1321.319,1980.921,1327.788,2060.381L1327.788,2060.381z"/>
					</g>
				</g>
			</g>
			<g>
				<g>
					<g>
						<g>
							<path style="fill:#323A49;" d="M1516.121,2210.348c49.58,40.748,134.787,18.322,145.18-46.984
								c0.788-4.377,5.008-7.278,9.378-6.436c4.001,0.767,6.729,4.392,6.475,8.354
								C1672.755,2244.834,1560.744,2273.792,1516.121,2210.348L1516.121,2210.348z"/>
						</g>
					</g>
					<g>
						<g>
							<path style="fill:#323A49;" d="M1639.37,2161.417c18.619-19.132,54.123-0.261,48.271,25.945
								c-7.637-5.572-14.245-12.014-22.385-16.038C1657.058,2166.901,1649.154,2164.782,1639.37,2161.417L1639.37,2161.417z"/>
						</g>
					</g>
				</g>
			</g>
		</g>
	</g>
</g>
</svg>
